<svg
   xmlns="http://www.w3.org/2000/svg"
   version="1.1"
   id="Layer_1"
   x="0px"
   y="0px"
   width="400"
   height="91.867"
   viewBox="0 0 400 91.867"
   xml:space="preserve"><g
     transform="translate(-327.50401,-66.692096)"><path
       fill="#005bac"
       d="m 456.71402,123.77611 c -0.9582,-10.17822 5.76052,-17.08811 11.52331,-20.54306 5.76052,-3.45949 11.32531,-8.448451 12.6727,-11.521037 0.90584,-2.077974 -1.07882,-6.079161 -2.46034,-8.457561 -1.2131,-0.1184 -2.44213,-0.18208 -3.68482,-0.18208 -20.57265,0 -37.24879,16.678428 -37.24879,37.248788 0,6.47291 1.65236,12.55433 4.55424,17.85739 h 26.3582 c -0.003,-0.003 -11.09316,-7.83395 -11.7145,-14.40244 z" /><path
       fill="#005bac"
       d="m 487.8222,130.30591 c -2.82223,2.98837 -9.98703,7.87264 -12.67269,3.64841 -2.68111,-4.21285 5.63078,-7.77932 9.79129,-10.75176 6.72099,-4.80005 7.87264,-7.49028 7.87264,-7.49028 0,0 -1.72748,11.1364 -4.99124,14.59363 z m -5.08911,-46.370938 c 3.82366,4.071734 10.4923,12.303978 10.08035,19.873908 -0.57583,10.55829 -5.37816,12.67041 -12.48151,17.47047 -7.10336,4.79777 -10.75176,8.06381 -10.75176,11.13868 0,3.07257 3.6484,5.9517 3.6484,5.9517 h 34.12159 c 2.96788,-5.35085 4.66577,-11.50284 4.66577,-18.05085 0,-17.83235 -12.54068,-32.733227 -29.28284,-36.383908 z" /><path
       fill="#005bac"
       d="m 445.37278,143.17205 c 6.8143,8.75572 17.43632,14.3979 29.39209,14.3979 11.95348,0 22.5755,-5.64444 29.38981,-14.3979 z" /><path
       fill="#005bac"
       d="m 327.62009,106.88601 c 0,-8.18445 14.78025,-24.460024 28.14712,-24.953904 16.17088,-0.598587 24.95391,8.18444 24.95391,8.18444 0,0 7.38785,-8.585027 21.95872,-8.585027 18.17146,0 31.62482,17.638891 31.62482,27.694201 v 46.59172 h -24.15277 v -42.35611 c 0,-3.36162 -0.55761,-5.8561 -1.67512,-7.49026 -1.62733,-2.56732 -5.22795,-3.85098 -7.59724,-3.85098 -2.88596,0 -5.18697,1.21311 -6.90989,3.63931 -1.72066,2.4262 -2.58326,6.32724 -2.58326,11.69401 v 38.3663 h -22.55729 v -40.85167 c 0,-3.25693 -0.16615,-5.4692 -0.48933,-6.63677 -0.51438,-1.85948 -4.18555,-6.63678 -9.77536,-6.21344 -2.7494,0.2071 -5.78784,1.23585 -7.58587,3.70302 -1.80031,2.46716 -2.69932,6.51615 -2.69932,12.14922 v 37.84964 h -20.7752 l 0.11613,-48.9337 v 0 z" /><polygon
       fill="#005bac"
       points="90.722,115.647 90.722,76.196 100.328,76.196 100.328,115.647 "
       transform="matrix(2.2759862,0,0,2.2759862,308.14902,-106.72894)" /><path
       fill="#005bac"
       d="M 578.75923,104.29139 V 84.727012 H 563.45777 V 66.692096 h -21.86085 c 0,0 -0.0615,50.558754 0,54.789814 0.23215,15.94784 9.21092,32.51701 23.18775,33.71418 3.78269,0.32547 13.97682,0 13.97682,0 v -17.56833 c 0,0 -7.78841,0.80115 -11.37992,-1.99604 -3.98753,-3.09989 -3.92153,-14.15208 -3.92153,-14.15208 v -17.1928 h 15.29919 v 0.004 z" /><path
       fill="#005bac"
       d="m 617.15049,80.703815 c -21.50124,0 -38.93164,17.426495 -38.93164,38.927735 0,21.49896 17.4304,38.92773 38.93164,38.92773 17.31797,0 31.98606,-11.3132 37.04102,-26.94921 h -22.09766 c -3.51184,4.37898 -8.89835,7.18554 -14.94336,7.18554 -8.04107,0 -14.91479,-4.95938 -17.75976,-11.97851 h 27.74023 7.7793 20.49219 c 0.43699,-2.32834 0.67578,-4.72976 0.67578,-7.18555 0,-21.49896 -17.43106,-38.927735 -38.92774,-38.927735 z m 0,19.761715 c 6.58443,0 12.39337,3.32525 15.84375,8.38477 h -31.6875 c 3.4504,-5.05952 9.25932,-8.38477 15.84375,-8.38477 z" /><path
       fill="#005bac"
       d="m 698.1438,112.07753 v 45.11688 h 21.36013 v -45.11688 c 0,0 -0.99916,-28.745704 -33.53893,-28.547691 -28.14712,0.172973 -28.34741,28.547691 -28.34741,28.547691 v 45.11688 h 21.36013 v -45.11688 c 0,0 0.99916,-8.38473 9.1836,-8.38473 8.18445,0 9.98248,8.38473 9.98248,8.38473 z" /><path
       fill="#005bac"
       d="m 715.2888,87.799586 v -8.746614 h 3.876 c 0.77839,0 1.37471,0.0796 1.77755,0.236707 0.40285,0.15704 0.72832,0.43472 0.97412,0.830733 0.23898,0.398294 0.35961,0.83984 0.35961,1.32008 0,0.621334 -0.20029,1.142534 -0.60087,1.568147 -0.40512,0.425613 -1.02192,0.696453 -1.86174,0.812533 0.30725,0.145654 0.53713,0.29132 0.69872,0.436987 0.33685,0.309533 0.65776,0.69872 0.96046,1.163027 l 1.52036,2.38068 h -1.45436 l -1.1562,-1.820787 c -0.33684,-0.52348 -0.61678,-0.926333 -0.83984,-1.204 -0.21849,-0.279947 -0.41422,-0.4734 -0.58265,-0.58492 -0.17297,-0.1116 -0.35049,-0.188907 -0.52803,-0.234427 -0.13428,-0.02733 -0.34594,-0.04093 -0.64409,-0.04093 H 716.445 v 3.882827 h -1.1562 v 0 z m 1.1562,-4.884267 h 2.48993 c 0.52348,0 0.94226,-0.05467 1.24042,-0.166147 0.29814,-0.1092 0.52346,-0.284493 0.68052,-0.523466 0.15021,-0.238987 0.23214,-0.50072 0.23214,-0.785214 0,-0.41424 -0.15021,-0.75336 -0.44837,-1.019653 -0.30271,-0.26628 -0.77839,-0.398293 -1.42704,-0.398293 h -2.76532 v 2.892773 h -0.003 z" /><path
       d="m 727.50401,83.716466 v 0 c 0,2.56504 -1.04012,4.886547 -2.72434,6.568507 -1.67968,1.6774 -3.99664,2.71752 -6.55712,2.7198 h -0.009 v 0 c -2.56504,0 -4.88426,-1.0424 -6.56621,-2.72436 -1.67968,-1.6774 -2.71981,-3.998907 -2.71981,-6.557107 v -0.0067 -0.004 c 0,-2.56048 1.04013,-4.884267 2.72436,-6.566213 1.67513,-1.677414 3.99662,-2.717534 6.55712,-2.719814 h 0.004 0.004 c 2.56048,0 4.88426,1.0424 6.56621,2.72436 1.67968,1.67968 2.7198,3.998907 2.7198,6.559387 v 0.0067 0 z m -1.59546,0.0027 v 0 -0.0093 c -0.004,-2.123493 -0.8626,-4.044427 -2.25323,-5.435053 -1.38607,-1.390627 -3.31156,-2.250947 -5.43732,-2.250947 h -0.004 -0.004 c -2.12577,0.0027 -4.04443,0.86032 -5.43733,2.250947 -1.38608,1.38836 -2.24868,3.31156 -2.24868,5.437333 v 0.004 0.0067 c 0,2.123493 0.8626,4.044427 2.24868,5.435053 1.39062,1.390627 3.31156,2.248667 5.44188,2.250947 v 0 h 0.009 c 2.12121,0 4.04443,-0.86032 5.43277,-2.250947 1.39063,-1.390626 2.25323,-3.31384 2.25323,-5.439613 v 0 z"
       fill="#005bac" /></g></svg>
