<?xml version="1.0" encoding="UTF-8" ?>
<!DOCTYPE svg PUBLIC "-//W3C//DTD SVG 1.1//EN" "http://www.w3.org/Graphics/SVG/1.1/DTD/svg11.dtd">
<svg width="294pt" height="300pt" viewBox="0 0 294 300" version="1.1" xmlns="http://www.w3.org/2000/svg">
<g id="#d60038ff">
<path fill="#d60038" opacity="1.00" d=" M 0.00 0.00 L 294.00 0.00 L 294.00 300.00 L 0.00 300.00 L 0.00 0.00 M 46.25 32.76 C 46.27 41.34 46.22 49.93 46.27 58.52 C 51.84 58.49 57.42 58.51 62.99 58.49 C 63.04 85.02 62.95 111.54 63.03 138.06 C 64.02 151.96 70.04 166.09 81.32 174.69 C 89.49 181.04 99.86 183.87 110.07 184.40 C 124.71 185.46 139.98 179.24 148.81 167.32 C 154.61 175.36 163.14 181.74 172.96 183.77 C 180.92 185.07 189.21 184.88 197.03 182.86 C 210.61 179.38 221.05 168.52 227.56 156.52 C 238.65 135.96 240.94 111.86 239.32 88.89 C 237.93 69.91 235.74 50.69 229.06 32.75 C 213.37 32.75 197.69 32.75 182.00 32.75 C 182.01 41.34 181.98 49.93 182.02 58.52 C 186.70 58.49 191.39 58.50 196.07 58.50 C 200.16 71.28 202.47 84.60 203.22 97.99 C 204.46 112.89 201.94 128.35 194.65 141.52 C 191.41 147.04 185.10 152.10 178.36 150.52 C 173.31 149.24 170.71 143.92 171.01 139.02 C 170.98 103.59 171.01 68.17 171.00 32.75 C 152.08 32.75 133.17 32.75 114.25 32.75 C 114.25 41.34 114.25 49.92 114.25 58.51 C 119.76 58.50 125.26 58.50 130.76 58.51 C 130.74 84.67 130.75 110.84 130.75 137.00 C 130.69 141.31 128.90 145.76 125.38 148.38 C 119.78 152.43 111.33 151.35 106.51 146.55 C 103.59 143.51 103.01 139.12 103.01 135.08 C 102.99 100.97 103.01 66.86 103.00 32.75 C 84.08 32.75 65.16 32.74 46.25 32.76 M 137.71 213.80 C 133.54 214.76 129.95 218.55 130.02 222.96 C 129.93 230.99 130.05 239.03 130.01 247.06 C 130.11 250.18 128.52 253.14 126.34 255.28 C 124.95 256.39 122.62 257.75 121.39 255.69 C 121.03 248.22 121.37 240.73 121.25 233.25 C 115.75 233.25 110.25 233.25 104.75 233.26 C 104.75 235.28 104.74 237.31 104.73 239.35 C 105.35 239.47 106.59 239.71 107.21 239.83 C 107.94 246.85 107.15 253.94 107.61 260.98 C 108.11 265.50 112.70 268.28 116.98 268.04 C 122.43 268.41 126.72 264.54 130.26 260.92 C 131.90 264.85 135.55 267.97 139.94 268.00 C 145.75 268.62 150.72 265.08 154.75 261.35 C 157.81 264.39 161.44 267.23 165.84 267.86 C 173.97 269.55 182.10 261.19 180.44 253.11 C 179.33 245.45 171.86 240.77 170.47 233.23 C 166.52 233.26 162.58 233.25 158.64 233.25 C 158.00 240.87 155.96 248.94 150.52 254.61 C 148.69 256.43 145.15 258.25 143.09 255.80 C 142.35 254.41 142.71 252.81 143.58 251.59 C 147.69 245.31 152.26 239.13 154.58 231.91 C 155.92 227.09 156.35 221.17 152.92 217.09 C 149.12 212.97 142.86 212.55 137.71 213.80 M 35.00 215.25 C 34.99 218.34 35.00 221.43 35.02 224.52 C 36.93 224.51 38.83 224.50 40.74 224.49 C 40.79 233.32 40.70 242.15 40.77 250.98 C 40.89 256.68 43.40 262.69 48.41 265.75 C 55.38 269.91 65.39 269.13 70.77 262.70 C 76.49 270.33 89.01 270.13 95.09 263.07 C 100.89 256.57 102.56 247.47 102.53 239.02 C 102.29 230.99 101.45 222.88 98.80 215.26 C 93.28 215.24 87.77 215.25 82.25 215.25 C 82.25 218.33 82.25 221.41 82.24 224.49 C 83.90 224.50 85.55 224.50 87.21 224.51 C 89.49 232.94 91.22 242.27 87.87 250.66 C 86.89 253.31 85.04 256.19 81.97 256.55 C 79.08 256.48 78.37 253.38 78.50 251.04 C 78.51 239.13 78.47 227.21 78.54 215.30 C 71.94 215.21 65.34 215.26 58.75 215.26 C 58.75 218.33 58.75 221.41 58.75 224.49 C 60.66 224.49 62.58 224.50 64.50 224.51 C 64.50 232.68 64.48 240.86 64.52 249.04 C 64.40 251.09 64.72 253.54 63.10 255.11 C 60.58 257.97 54.86 256.07 55.04 252.09 C 54.92 239.81 55.05 227.53 55.00 215.25 C 48.33 215.25 41.67 215.25 35.00 215.25 M 111.47 219.70 C 107.20 220.38 104.73 226.05 107.55 229.45 C 110.36 232.48 115.16 232.87 118.91 231.60 C 122.93 230.38 124.55 224.54 121.46 221.58 C 118.70 219.38 114.83 218.83 111.47 219.70 M 233.67 238.31 C 231.92 235.96 230.14 233.06 226.95 232.65 C 221.52 231.64 217.09 235.77 213.69 239.43 C 207.04 230.39 192.12 230.45 185.07 238.95 C 180.67 244.93 179.85 253.64 183.98 259.98 C 189.08 268.63 201.93 270.49 209.86 264.78 C 215.85 261.08 217.65 253.25 216.43 246.70 C 217.57 245.94 218.73 245.24 220.03 244.80 C 221.05 252.38 220.27 260.08 220.47 267.70 C 225.06 267.77 229.65 267.76 234.25 267.74 C 234.27 261.16 234.22 254.58 234.25 247.99 C 233.51 244.29 239.78 242.86 241.08 246.10 C 241.68 251.59 240.75 257.16 241.55 262.64 C 241.99 265.30 244.34 267.42 247.02 267.64 C 251.01 267.92 255.00 267.68 259.00 267.75 C 258.99 265.81 259.00 263.88 259.00 261.95 C 257.57 261.49 255.08 262.17 255.13 259.96 C 254.75 253.64 255.18 247.30 254.98 240.97 C 254.98 236.66 251.32 232.77 247.03 232.42 C 241.81 231.57 237.16 234.78 233.67 238.31 Z" />
<path fill="#d60038" opacity="1.00" d=" M 142.34 225.99 C 142.49 223.90 143.42 220.96 145.95 220.91 C 147.98 222.58 148.00 225.48 147.46 227.84 C 146.49 232.05 144.93 236.19 142.36 239.70 C 142.23 235.13 142.12 230.55 142.34 225.99 Z" />
<path fill="#d60038" opacity="1.00" d=" M 197.26 242.18 C 198.93 241.40 201.57 241.75 202.12 243.78 C 203.53 248.29 203.55 253.44 201.67 257.82 C 199.57 259.77 195.80 258.57 195.59 255.59 C 194.89 251.26 194.10 245.68 197.26 242.18 Z" />
<path fill="#d60038" opacity="1.00" d=" M 159.10 255.66 C 160.46 252.50 161.80 249.33 163.02 246.11 C 164.45 249.57 168.86 253.82 165.50 257.43 C 163.27 259.40 160.67 257.41 159.10 255.66 Z" />
</g>
<g id="#ffffffff">
<path fill="#ffffff" opacity="1.00" d=" M 46.25 32.76 C 65.16 32.74 84.08 32.75 103.00 32.75 C 103.01 66.86 102.99 100.97 103.01 135.08 C 103.01 139.12 103.59 143.51 106.51 146.55 C 111.33 151.35 119.78 152.43 125.38 148.38 C 128.90 145.76 130.69 141.31 130.75 137.00 C 130.75 110.84 130.74 84.67 130.76 58.51 C 125.26 58.50 119.76 58.50 114.25 58.51 C 114.25 49.92 114.25 41.34 114.25 32.75 C 133.17 32.75 152.08 32.75 171.00 32.75 C 171.01 68.17 170.98 103.59 171.01 139.02 C 170.71 143.92 173.31 149.24 178.36 150.52 C 185.10 152.10 191.41 147.04 194.65 141.52 C 201.94 128.35 204.46 112.89 203.22 97.99 C 202.47 84.60 200.16 71.28 196.07 58.50 C 191.39 58.50 186.70 58.49 182.02 58.52 C 181.98 49.93 182.01 41.34 182.00 32.75 C 197.69 32.75 213.37 32.75 229.06 32.75 C 235.74 50.69 237.93 69.91 239.32 88.89 C 240.94 111.86 238.65 135.96 227.56 156.52 C 221.05 168.52 210.61 179.38 197.03 182.86 C 189.21 184.88 180.92 185.07 172.96 183.77 C 163.14 181.74 154.61 175.36 148.81 167.32 C 139.98 179.24 124.71 185.46 110.07 184.40 C 99.86 183.87 89.49 181.04 81.32 174.69 C 70.04 166.09 64.02 151.96 63.03 138.06 C 62.95 111.54 63.04 85.02 62.99 58.49 C 57.42 58.51 51.84 58.49 46.27 58.52 C 46.22 49.93 46.27 41.34 46.25 32.76 Z" />
<path fill="#ffffff" opacity="1.00" d=" M 137.71 213.80 C 142.86 212.55 149.12 212.97 152.92 217.09 C 156.35 221.17 155.92 227.09 154.58 231.91 C 152.26 239.13 147.69 245.31 143.58 251.59 C 142.71 252.81 142.35 254.41 143.09 255.80 C 145.15 258.25 148.69 256.43 150.52 254.61 C 155.96 248.94 158.00 240.87 158.64 233.25 C 162.58 233.25 166.52 233.26 170.47 233.23 C 171.86 240.77 179.33 245.45 180.44 253.11 C 182.10 261.19 173.97 269.55 165.84 267.86 C 161.44 267.23 157.81 264.39 154.75 261.35 C 150.72 265.08 145.75 268.62 139.94 268.00 C 135.55 267.97 131.90 264.85 130.26 260.92 C 126.72 264.54 122.43 268.41 116.98 268.04 C 112.70 268.28 108.11 265.50 107.61 260.98 C 107.15 253.94 107.94 246.85 107.21 239.83 C 106.59 239.71 105.35 239.47 104.73 239.35 C 104.74 237.31 104.75 235.28 104.75 233.26 C 110.25 233.25 115.75 233.25 121.25 233.25 C 121.37 240.73 121.03 248.22 121.39 255.69 C 122.62 257.75 124.95 256.39 126.34 255.28 C 128.52 253.14 130.11 250.18 130.01 247.06 C 130.05 239.03 129.93 230.99 130.02 222.96 C 129.95 218.55 133.54 214.76 137.71 213.80 M 142.34 225.99 C 142.12 230.55 142.23 235.13 142.36 239.70 C 144.93 236.19 146.49 232.05 147.46 227.84 C 148.00 225.48 147.98 222.58 145.95 220.91 C 143.42 220.96 142.49 223.90 142.34 225.99 M 159.10 255.66 C 160.67 257.41 163.27 259.40 165.50 257.43 C 168.86 253.82 164.45 249.57 163.02 246.11 C 161.80 249.33 160.46 252.50 159.10 255.66 Z" />
<path fill="#ffffff" opacity="1.00" d=" M 35.00 215.25 C 41.67 215.25 48.33 215.25 55.00 215.25 C 55.05 227.53 54.92 239.81 55.04 252.09 C 54.86 256.07 60.58 257.97 63.10 255.11 C 64.72 253.54 64.40 251.09 64.52 249.04 C 64.48 240.86 64.50 232.68 64.50 224.51 C 62.58 224.50 60.66 224.49 58.75 224.49 C 58.75 221.41 58.75 218.33 58.75 215.26 C 65.34 215.26 71.94 215.21 78.54 215.30 C 78.47 227.21 78.51 239.13 78.50 251.04 C 78.37 253.38 79.08 256.48 81.97 256.55 C 85.04 256.19 86.89 253.31 87.87 250.66 C 91.22 242.27 89.49 232.94 87.21 224.51 C 85.55 224.50 83.90 224.50 82.24 224.49 C 82.25 221.41 82.25 218.33 82.25 215.25 C 87.77 215.25 93.28 215.24 98.80 215.26 C 101.45 222.88 102.29 230.99 102.53 239.02 C 102.56 247.47 100.89 256.57 95.09 263.07 C 89.01 270.13 76.49 270.33 70.77 262.70 C 65.39 269.13 55.38 269.91 48.41 265.75 C 43.40 262.69 40.89 256.68 40.77 250.98 C 40.70 242.15 40.79 233.32 40.74 224.49 C 38.83 224.50 36.93 224.51 35.02 224.52 C 35.00 221.43 34.99 218.34 35.00 215.25 Z" />
<path fill="#ffffff" opacity="1.00" d=" M 111.47 219.70 C 114.83 218.83 118.70 219.38 121.46 221.58 C 124.55 224.54 122.93 230.38 118.91 231.60 C 115.16 232.87 110.36 232.48 107.55 229.45 C 104.73 226.05 107.20 220.38 111.47 219.70 Z" />
<path fill="#ffffff" opacity="1.00" d=" M 233.67 238.31 C 237.16 234.78 241.81 231.57 247.03 232.42 C 251.32 232.77 254.98 236.66 254.98 240.97 C 255.18 247.30 254.75 253.64 255.13 259.96 C 255.08 262.17 257.57 261.49 259.00 261.95 C 259.00 263.88 258.99 265.81 259.00 267.75 C 255.00 267.68 251.01 267.92 247.02 267.64 C 244.34 267.42 241.99 265.30 241.55 262.64 C 240.75 257.16 241.68 251.59 241.08 246.10 C 239.78 242.86 233.51 244.29 234.25 247.99 C 234.22 254.58 234.27 261.16 234.25 267.74 C 229.65 267.76 225.06 267.77 220.47 267.70 C 220.27 260.08 221.05 252.38 220.03 244.80 C 218.73 245.24 217.57 245.94 216.43 246.70 C 217.65 253.25 215.85 261.08 209.86 264.78 C 201.93 270.49 189.08 268.63 183.98 259.98 C 179.85 253.64 180.67 244.93 185.07 238.95 C 192.12 230.45 207.04 230.39 213.69 239.43 C 217.09 235.77 221.52 231.64 226.95 232.65 C 230.14 233.06 231.92 235.96 233.67 238.31 M 197.26 242.18 C 194.10 245.68 194.89 251.26 195.59 255.59 C 195.80 258.57 199.57 259.77 201.67 257.82 C 203.55 253.44 203.53 248.29 202.12 243.78 C 201.57 241.75 198.93 241.40 197.26 242.18 Z" />
</g>
</svg>
